<svg width="280" height="49" viewBox="0 0 280 49" fill="none" xmlns="http://www.w3.org/2000/svg">
<path d="M13.86 42.9C15.752 42.9 17.402 42.614 18.81 42.042C20.262 41.47 21.494 40.678 22.506 39.666C23.518 38.654 24.354 37.444 25.014 36.036C25.718 34.584 26.29 33 26.73 31.284L26.928 30.492H32.472L32.274 31.284C31.614 33.924 30.778 36.3 29.766 38.412C28.798 40.48 27.566 42.24 26.07 43.692C24.618 45.1 22.836 46.178 20.724 46.926C18.612 47.674 16.104 48.048 13.2 48.048C11.044 48.048 9.152 47.74 7.524 47.124C5.896 46.508 4.51 45.65 3.366 44.55C2.266 43.406 1.43 42.064 0.858 40.524C0.286 38.984 0 37.268 0 35.376C0 34.452 0.044 33.484 0.132 32.472C0.264 31.416 0.44 30.316 0.66 29.172L2.838 18.876C4.158 12.628 6.446 7.92 9.702 4.752C13.002 1.584 17.336 0 22.704 0C24.816 0 26.686 0.308 28.314 0.924C29.986 1.54 31.372 2.398 32.472 3.498C33.616 4.554 34.474 5.852 35.046 7.392C35.662 8.888 35.97 10.516 35.97 12.276C35.97 13.684 35.772 15.18 35.376 16.764L35.178 17.556H29.634L29.832 16.764C30.052 15.928 30.184 15.202 30.228 14.586C30.316 13.926 30.36 13.288 30.36 12.672C30.36 10.34 29.678 8.492 28.314 7.128C26.994 5.72 24.838 5.016 21.846 5.016C20.086 5.016 18.48 5.368 17.028 6.072C15.576 6.776 14.278 7.766 13.134 9.042C11.99 10.274 11 11.77 10.164 13.53C9.372 15.246 8.756 17.16 8.316 19.272L6.27 28.776C6.05 29.788 5.874 30.734 5.742 31.614C5.654 32.494 5.61 33.33 5.61 34.122C5.61 37.07 6.27 39.27 7.59 40.722C8.91 42.174 11 42.9 13.86 42.9Z" fill="black"/>
<path d="M42.9861 18.876C44.2621 12.716 46.5061 8.03 49.7181 4.818C52.9741 1.606 57.3301 0 62.7861 0C67.0541 0 70.3101 1.232 72.5541 3.696C74.8421 6.116 75.9861 9.482 75.9861 13.794C75.9861 14.674 75.9201 15.62 75.7881 16.632C75.7001 17.6 75.5461 18.59 75.3261 19.602L73.2801 29.172C72.0041 35.332 69.7381 40.018 66.4821 43.23C63.2701 46.442 58.9361 48.048 53.4801 48.048C49.2121 48.048 45.9341 46.838 43.6461 44.418C41.4021 41.954 40.2801 38.566 40.2801 34.254C40.2801 33.374 40.3241 32.45 40.4121 31.482C40.5441 30.47 40.7201 29.458 40.9401 28.446L42.9861 18.876ZM54.2721 43.032C56.0761 43.032 57.7041 42.702 59.1561 42.042C60.6521 41.338 61.9501 40.37 63.0501 39.138C64.1941 37.862 65.1401 36.366 65.8881 34.65C66.6801 32.89 67.3181 30.932 67.8021 28.776L69.9141 18.876C70.2661 17.116 70.4421 15.576 70.4421 14.256C70.4421 11.396 69.7381 9.152 68.3301 7.524C66.9221 5.852 64.8101 5.016 61.9941 5.016C58.3421 5.016 55.3941 6.314 53.1501 8.91C50.9501 11.506 49.3881 14.96 48.4641 19.272L46.3521 29.172C46.0001 30.932 45.8241 32.472 45.8241 33.792C45.8241 36.652 46.5281 38.918 47.9361 40.59C49.3441 42.218 51.4561 43.032 54.2721 43.032Z" fill="black"/>
<path d="M102.34 44.748H103.132L112.438 0.924H117.982L108.148 47.124H97.2582L94.6182 3.3H93.8262L84.5202 47.124H78.9762L88.8102 0.924H99.7002L102.34 44.748Z" fill="black"/>
<path d="M125.526 0.924H158.724V6.072H145.326L136.614 47.124H131.07L139.782 6.072H125.526V0.924Z" fill="black"/>
<path d="M186.794 35.64H168.248L162.638 47.124H156.368L179.27 0.924H189.83L193.13 47.124H187.52L186.794 35.64ZM170.756 30.492H186.464L184.748 3.366H183.956L170.756 30.492Z" fill="black"/>
<path d="M215.921 42.9C217.813 42.9 219.463 42.614 220.871 42.042C222.323 41.47 223.555 40.678 224.567 39.666C225.579 38.654 226.415 37.444 227.075 36.036C227.779 34.584 228.351 33 228.791 31.284L228.989 30.492H234.533L234.335 31.284C233.675 33.924 232.839 36.3 231.827 38.412C230.859 40.48 229.627 42.24 228.131 43.692C226.679 45.1 224.897 46.178 222.785 46.926C220.673 47.674 218.165 48.048 215.261 48.048C213.105 48.048 211.213 47.74 209.585 47.124C207.957 46.508 206.571 45.65 205.427 44.55C204.327 43.406 203.491 42.064 202.919 40.524C202.347 38.984 202.061 37.268 202.061 35.376C202.061 34.452 202.105 33.484 202.193 32.472C202.325 31.416 202.501 30.316 202.721 29.172L204.899 18.876C206.219 12.628 208.507 7.92 211.763 4.752C215.063 1.584 219.397 0 224.765 0C226.877 0 228.747 0.308 230.375 0.924C232.047 1.54 233.433 2.398 234.533 3.498C235.677 4.554 236.535 5.852 237.107 7.392C237.723 8.888 238.031 10.516 238.031 12.276C238.031 13.684 237.833 15.18 237.437 16.764L237.239 17.556H231.695L231.893 16.764C232.113 15.928 232.245 15.202 232.289 14.586C232.377 13.926 232.421 13.288 232.421 12.672C232.421 10.34 231.739 8.492 230.375 7.128C229.055 5.72 226.899 5.016 223.907 5.016C222.147 5.016 220.541 5.368 219.089 6.072C217.637 6.776 216.339 7.766 215.195 9.042C214.051 10.274 213.061 11.77 212.225 13.53C211.433 15.246 210.817 17.16 210.377 19.272L208.331 28.776C208.111 29.788 207.935 30.734 207.803 31.614C207.715 32.494 207.671 33.33 207.671 34.122C207.671 37.07 208.331 39.27 209.651 40.722C210.971 42.174 213.061 42.9 215.921 42.9Z" fill="black"/>
<path d="M246.763 0.924H279.961V6.072H266.563L257.851 47.124H252.307L261.019 6.072H246.763V0.924Z" fill="black"/>
</svg>
